Coordinates
version=1
nRows=14
nColumns=40
inDegrees=yes

Units are S.I. units (second, meters, Newtons, ...)
Angles are in degrees.

endheader
time	pelvis_tilt	pelvis_list	pelvis_rotation	pelvis_tx	pelvis_ty	pelvis_tz	hip_flexion_r	hip_adduction_r	hip_rotation_r	knee_angle_r	knee_angle_r_beta	ankle_angle_r	subtalar_angle_r	mtp_angle_r	hip_flexion_l	hip_adduction_l	hip_rotation_l	knee_angle_l	knee_angle_l_beta	ankle_angle_l	subtalar_angle_l	mtp_angle_l	lumbar_extension	lumbar_bending	lumbar_rotation	arm_flex_r	arm_add_r	arm_rot_r	elbow_flex_r	pro_sup_r	wrist_flex_r	wrist_dev_r	arm_flex_l	arm_add_l	arm_rot_l	elbow_flex_l	pro_sup_l	wrist_flex_l	wrist_dev_l
     53.76442857	     -5.12491072	     -5.97967103	      3.36618641	      1.07489797	      0.93276471	      0.51671363	      9.86483763	      5.19866226	    -19.49376997	     10.86985206	     10.86985206	      8.73983676	      6.53647003	     -4.84719222	     37.91474112	    -12.29419139	      1.00690576	     59.00660744	     59.00660744	     11.68974693	    -17.95412323	     11.62618015	    -12.14252727	      7.69647246	      4.59643957	     30.13887541	    -16.71009369	      3.69322291	     40.04965037	     45.73904290	      0.00000000	      0.00000000	      2.28160526	     -7.45531029	     -1.43617423	     34.00974728	     46.99001779	      0.00000000	      0.00000000
     53.77635714	     -5.21822275	     -6.03369974	      3.52791398	      1.07350566	      0.93269581	      0.51680582	      9.27401967	      5.38821980	    -19.53548818	     10.28517719	     10.28517719	      8.78549684	      6.68262182	     -5.07769605	     38.56282262	    -12.08312886	      1.04799452	     56.49852963	     56.49852963	     11.52601838	    -17.81941821	     11.48500245	    -12.11253721	      7.75816151	      4.85260633	     31.43722252	    -17.17436804	      4.41014375	     43.22317222	     45.58384429	      0.00000000	      0.00000000	      2.10172754	     -7.27116117	     -1.82723542	     30.38211112	     46.97091209	      0.00000000	      0.00000000
     53.78828571	     -5.31741350	     -6.05531618	      3.67421023	      1.07214631	      0.93257573	      0.51681197	      8.71040159	      5.53068116	    -19.54219420	      9.76183749	      9.76183749	      8.93301706	      6.81456322	     -5.07347900	     39.05581705	    -11.78218938	      1.13691920	     53.73163226	     53.73163226	     11.47909367	    -17.60112428	     11.75117229	    -12.08490753	      7.75461522	      4.53115867	     33.42099980	    -16.77673304	      4.34568745	     44.97944289	     45.53290599	      0.00000000	      0.00000000	      0.79810545	     -7.49589489	     -1.80661232	     29.19542633	     46.93398752	      0.00000000	      0.00000000
     53.80021429	     -5.42202528	     -6.18568786	      3.83833264	      1.07093981	      0.93227309	      0.51669568	      8.08965690	      5.78779592	    -19.67091710	      9.12699525	      9.12699525	      8.99959499	      7.16979219	     -5.24682096	     39.42789884	    -11.55128546	      1.33105155	     50.74428882	     50.74428882	     11.20203869	    -17.27203692	     11.06862568	    -12.05106206	      7.91284458	      4.66557146	     34.50325198	    -17.17200595	      4.77760318	     48.79206388	     45.37961957	      0.00000000	      0.00000000	      0.16330179	     -7.53385271	     -1.71215332	     26.99038692	     46.85113838	      0.00000000	      0.00000000
     53.81214286	     -5.54665874	     -6.24030819	      3.94578457	      1.06979519	      0.93194535	      0.51649503	      7.52032958	      5.95904460	    -19.65589198	      8.57601453	      8.57601453	      9.18234172	      7.36826092	     -5.25001980	     39.62885903	    -11.22213630	      1.50549088	     47.54957177	     47.54957177	     11.21260389	    -16.77700937	     11.29018277	    -11.95171060	      7.96070330	      4.39901570	     36.29812664	    -16.71564203	      4.68707178	     50.63015291	     45.32796452	      0.00000000	      0.00000000	     -1.10171800	     -7.75238940	     -1.62035619	     26.08310330	     46.80099304	      0.00000000	      0.00000000
     53.82407143	     -5.79694075	     -6.49448802	      4.00923517	      1.06861910	      0.93115383	      0.51626998	      7.25746337	      6.27630385	    -19.68856051	      8.33627898	      8.33627898	      9.43217201	      7.45927291	     -5.35206143	     39.95878872	    -11.12388225	      1.73035746	     44.37615473	     44.37615473	     11.33282821	    -15.86486746	     11.56024982	    -11.66548649	      8.23408374	      4.72602429	     37.98289745	    -16.84506745	      4.52249322	     51.74033965	     45.30477811	      0.00000000	      0.00000000	     -2.15997499	     -7.83969363	     -1.59549377	     25.58716820	     46.77305548	      0.00000000	      0.00000000
     53.83600000	     -5.75831131	     -6.47270066	      4.10914856	      1.06797045	      0.93094190	      0.51581203	      6.24606794	      6.42757332	    -19.75896770	      7.35176422	      7.35176422	      9.53996341	      8.11525454	     -5.28668705	     39.59528079	    -10.74954652	      1.77988771	     40.85207885	     40.85207885	     11.27719649	    -15.11928365	     11.70264084	    -11.77136134	      8.21435694	      3.82246881	     39.52220782	    -15.75166875	      4.59775322	     54.90764096	     45.19763007	      0.00000000	      0.00000000	     -3.69059641	     -8.11566221	     -1.40017181	     24.61876632	     46.69953653	      0.00000000	      0.00000000
     53.84792857	     -5.85788801	     -6.73945621	      4.17078460	      1.06733804	      0.93013586	      0.51533238	      5.58257836	      6.79543102	    -20.10280689	      6.73393381	      6.73393381	      9.74990847	      8.99587820	     -5.34982238	     39.38745447	    -10.67277568	      1.94271050	     37.41639617	     37.41639617	     10.80862593	    -14.23942469	     10.71062651	    -11.76538599	      8.48749309	      4.52060663	     39.39174806	    -16.83228089	      4.73586699	     61.05427621	     44.99486887	      0.00000000	      0.00000000	     -4.63082015	     -8.28007279	     -0.43537157	     24.61610685	     46.44110767	      0.00000000	      0.00000000
     53.85985714	     -5.93797839	     -6.88116036	      4.13846809	      1.06691695	      0.92929100	      0.51485051	      4.92697378	      7.04453159	    -20.02312619	      6.22002213	      6.22002213	     10.03903368	      9.30929421	     -5.39955690	     39.02206090	    -10.56329845	      1.83267744	     34.13228085	     34.13228085	     10.77708497	    -13.16777180	     11.21800520	    -11.62992173	      8.61455675	      4.34814940	     40.88519402	    -16.25575163	      4.61710864	     62.80770246	     44.95018366	      0.00000000	      0.00000000	     -5.90139595	     -8.42428438	     -0.23096597	     24.10827296	     46.37158838	      0.00000000	      0.00000000
     53.87178571	     -5.95595169	     -7.11075207	      4.10506811	      1.06677984	      0.92835253	      0.51424706	      4.15323064	      7.39269944	    -20.02963438	      5.63496100	      5.63496100	     10.30148024	      9.82338776	     -5.42558616	     38.54602728	    -10.54614818	      1.70536967	     31.09174531	     31.09174531	     10.71957385	    -12.10382440	     11.81898516	    -11.55732231	      8.85596452	      4.05127665	     42.12315458	    -15.63851064	      4.55642685	     65.30890316	     44.87826870	      0.00000000	      0.00000000	     -7.30909450	     -8.51027577	      0.01634347	     23.93060980	     46.28555108	      0.00000000	      0.00000000
     53.88371429	     -5.95160419	     -7.31026219	      4.03600684	      1.06691454	      0.92726760	      0.51352834	      3.39997677	      7.67243983	    -19.96941429	      5.19342579	      5.19342579	     10.66515765	     10.28400335	     -5.47599212	     37.99976737	    -10.53873721	      1.39437005	     28.39683161	     28.39683161	     10.56927005	    -11.13900426	     12.52447246	    -11.44729224	      9.07243944	      3.91580388	     43.10345511	    -15.16845582	      4.52985395	     67.92629343	     44.80107336	      0.00000000	      0.00000000	     -8.70644152	     -8.60443164	      0.24177716	     24.01615004	     46.20217406	      0.00000000	      0.00000000
     53.89564286	     -6.00056246	     -7.62477568	      3.95287761	      1.06722188	      0.92587807	      0.51273889	      2.74789101	      8.04923624	    -20.00357770	      4.85313896	      4.85313896	     11.13930697	     10.81134292	     -5.32216423	     37.61690748	    -10.64719575	      1.04326583	     26.28172643	     26.28172643	     10.45878920	    -10.30675543	     13.45809899	    -11.36684084	      9.38641293	      4.39786341	     43.09800886	    -15.65739866	      4.35861547	     72.89119507	     44.66939968	      0.00000000	      0.00000000	    -10.25630629	     -8.84053596	      1.17144215	     25.72110653	     45.95571060	      0.00000000	      0.00000000
     53.90757143	     -6.00844620	     -7.84954202	      3.82480093	      1.06774030	      0.92450870	      0.51184383	      2.15883767	      8.28725804	    -19.79619159	      4.76900634	      4.76900634	     11.61430323	     10.89903508	     -5.45644794	     37.08793722	    -10.70000967	      0.53318562	     24.47599326	     24.47599326	     10.03813854	     -9.70854828	     14.01678339	    -11.12634372	      9.61484637	      4.36786832	     44.22240715	    -15.18450258	      4.29153259	     74.24334908	     44.63596834	      0.00000000	      0.00000000	    -11.27406679	     -8.75690912	      1.37767764	     25.45695364	     45.89829460	      0.00000000	      0.00000000
     53.91950000	     -5.91655877	     -8.02555775	      3.68870228	      1.06866532	      0.92314750	      0.51081853	      1.41918077	      8.47386543	    -19.49197962	      4.68143719	      4.68143719	     12.28909898	     10.99576110	     -5.15041137	     36.50511700	    -10.71962283	     -0.02473861	     23.26968920	     23.26968920	      9.49774325	     -9.46909706	     14.22518041	    -11.11034428	      9.74576651	      4.48022043	     44.15564011	    -15.12963992	      4.14715284	     78.71836065	     44.53496335	      0.00000000	      0.00000000	    -12.88449520	     -9.09938022	      2.75217132	     26.80125632	     45.60476531	      0.00000000	      0.00000000
